OFF
69 134 0
288.8847281181595 357.7551028444682 565.1113657635872
289.20387491569966 357.77829865178217 565.1113657635872
289.20387491569966 357.7551028444682 565.1113657635872
288.5655813206193 357.7551028444682 565.1113657635872
288.20387491569966 357.77829865178217 565.1113657635872
288.70387491569966 357.77829865178217 565.1113657635872
288.20387491569966 356.77829865178217 565.1113657635872
288.5655813206193 357.2667007481252 565.1113657635872
288.5655813206193 356.77829865178217 565.1113657635872
288.20387491569966 357.27829865178217 565.1113657635872
288.4403539162496 356.77829865178217 565.3613657635872
288.6706558940768 356.77829865178217 565.3180121128319
288.7817110689345 356.77829865178217 565.5215068984674
288.8986524109466 356.77829865178217 565.7216770814915
288.4403539162496 356.77829865178217 565.8613657635872
289.0213804806456 356.77829865178217 565.9183524499327
288.67683291679964 356.77829865178217 566.1113657635872
289.14979091789957 356.77829865178217 566.1113657635872
288.2038749156996 356.7782986517822 566.1113657635871
288.20387491569966 356.77829865178217 565.6113657635872
288.6173653277743 357.14460022403944 565.2150719622998
288.6173653277743 356.9003991758679 565.2150719622998
288.9592995130352 356.9003991758679 565.8204621413779
288.8394520676735 356.9003991758679 565.622018271521
289.14979091789957 357.2667007481252 566.1113657635872
289.08488211565174 356.9003991758679 566.0153271961301
288.9592995130352 357.14460022403944 565.8204621413779
289.08488211565174 357.3888012722109 566.0153271961301
288.9592995130352 357.3888012722109 565.8204621413779
289.14979091789957 357.7551028444682 566.1113657635872
289.08488211565174 357.14460022403944 566.0153271961301
288.7254416901992 356.9003991758679 565.4201643305843
288.8394520676735 357.14460022403944 565.622018271521
288.8394520676735 357.3888012722109 565.622018271521
288.6173653277743 357.3888012722109 565.2150719622998
288.7254416901992 357.63300232038245 565.4201643305843
288.6173653277743 357.63300232038245 565.2150719622998
288.7254416901992 357.14460022403944 565.4201643305843
288.7254416901992 357.3888012722109 565.4201643305843
288.9592995130352 357.63300232038245 565.8204621413779
288.8394520676735 357.63300232038245 565.622018271521
289.08488211565174 357.63300232038245 566.0153271961301
289.0213804806458 357.7551028444682 565.9183524499331
288.8986524109468 357.7551028444682 565.7216770814919
288.7817110689345 357.7551028444682 565.5215068984674
288.6706558940768 357.7551028444682 565.3180121128319
289.09749264985294 357.7551028444682 565.2363657635872
289.20387491569966 357.7551028444682 565.6113657635872
288.8847281181595 357.7551028444682 565.4863657635872
289.09749264985294 357.7551028444682 565.4863657635872
289.09749264985294 357.7551028444682 565.7363657635872
289.20387491569966 357.7551028444682 566.1113657635872
288.8847281181595 357.7551028444682 565.2363657635872
289.20387491569966 357.77829865178217 565.6113657635872
289.20387491569966 357.77829865178217 566.1113657635872
288.95387491569966 357.77829865178217 565.3613657635872
288.95387491569966 357.77829865178217 565.8613657635872
288.70387491569966 357.77829865178217 566.1113657635872
288.4538749156996 357.77829865178217 565.8613657635872
288.2038749156996 357.7782986517822 566.1113657635871
288.20387491569966 357.77829865178217 565.6113657635872
288.4538749156996 357.77829865178217 565.3613657635872
288.20387491569966 357.02829865178217 565.3613657635872
288.20387491569966 357.5282986517822 565.3613657635872
288.20387491569966 357.02829865178217 565.8613657635872
288.20387491569966 357.27829865178217 566.1113657635872
288.20387491569966 357.5282986517822 565.8613657635872
288.4538749156996 357.5282986517822 566.1113657635872
288.4538749156996 357.02829865178217 566.1113657635872
3 2 0 1
3 5 3 4
3 8 6 7
3 9 7 6
3 3 5 0
3 4 3 9
3 7 9 3
3 5 1 0
3 10 6 8
3 10 11 12
3 14 12 13
3 13 15 16
3 15 17 16
3 10 12 14
3 14 18 19
3 10 19 6
3 8 11 10
3 14 19 10
3 13 16 14
3 14 16 18
3 20 8 7
3 21 11 8
3 13 23 22
3 23 13 12
3 25 24 17
3 28 27 26
3 27 29 24
3 27 30 26
3 32 23 31
3 33 28 32
3 36 35 34
3 38 33 37
3 22 15 13
3 25 17 15
3 15 22 25
3 30 25 22
3 23 32 26
3 31 12 11
3 12 31 23
3 40 39 33
3 11 21 31
3 8 20 21
3 26 22 23
3 25 30 24
3 22 26 30
3 39 41 28
3 35 40 38
3 21 37 31
3 37 32 31
3 20 34 38
3 20 37 21
3 34 20 7
3 30 27 24
3 28 41 27
3 33 39 28
3 32 28 26
3 38 40 33
3 37 33 32
3 34 35 38
3 20 38 37
3 7 36 34
3 36 7 3
3 41 29 27
3 41 42 29
3 41 39 42
3 39 43 42
3 39 40 43
3 40 44 43
3 40 35 44
3 35 45 44
3 35 36 45
3 36 3 45
3 3 0 45
3 2 47 46
3 49 43 48
3 47 51 50
3 29 42 51
3 42 43 50
3 43 49 50
3 44 45 48
3 0 46 52
3 0 2 46
3 52 48 45
3 0 52 45
3 46 49 52
3 46 47 49
3 52 49 48
3 44 48 43
3 47 50 49
3 42 50 51
3 1 53 2
3 47 53 51
3 54 51 53
3 47 2 53
3 55 1 5
3 56 54 53
3 56 58 57
3 58 60 59
3 1 55 53
3 58 61 60
3 61 4 60
3 61 5 4
3 54 56 57
3 58 59 57
3 58 55 61
3 55 5 61
3 58 56 55
3 56 53 55
3 62 6 19
3 63 60 4
3 64 63 62
3 66 65 59
3 66 63 64
3 64 18 65
3 18 64 19
3 6 62 9
3 64 62 19
3 66 64 65
3 62 63 9
3 63 4 9
3 63 66 60
3 66 59 60
3 51 54 29
3 57 29 54
3 59 65 67
3 68 24 67
3 65 18 68
3 16 24 68
3 17 24 16
3 57 24 29
3 65 68 67
3 16 68 18
3 57 67 24
3 57 59 67
